<?xml version="1.0" encoding="UTF-8"?>
<svg width="1200pt" height="1200pt" version="1.1" viewBox="0 0 1200 1200" xmlns="http://www.w3.org/2000/svg">
 <g>
  <path d="m643.74 382.45c0 24.16-19.586 43.742-43.742 43.742s-43.742-19.582-43.742-43.742c0-24.156 19.586-43.742 43.742-43.742s43.742 19.586 43.742 43.742"/>
  <path d="m641.15 495.25 54.965 136.11 40.863-16.402-65.902-163.45c-3.4531-8.3438-11.512-13.812-20.434-13.812h-101.01c-8.9219 0-16.977 5.4688-20.434 13.812l-65.898 163.45 40.863 16.402 54.965-136.11 6.9062 2.8789-74.523 198.27h59.281l31.941 169.79h33.668l31.941-169.79h59.281l-73.957-198.27z"/>
  <path d="m1132.4 561.44-305.04-135.82v77.121l217.27 95.828-217.27 97.266v77.121l305.04-134.39z"/>
  <path d="m69.066 638.56 305.04 134.39v-77.121l-217.27-97.266 217.27-95.828v-77.121l-305.04 135.82z"/>
 </g>
</svg>
