<svg xmlns="http://www.w3.org/2000/svg" fill="white" width="1200" height="1200" version="1.1" style=""><rect id="backgroundrect" width="100%" height="100%" x="0" y="0" fill="none" stroke="none"/>

<g class="currentLayer" style=""><title>Layer 1</title><path fill="#466f81" fill-opacity="1" stroke="none" stroke-opacity="1" stroke-width="1" stroke-dasharray="none" stroke-linejoin="miter" stroke-linecap="butt" stroke-dashoffset="" fill-rule="nonzero" opacity="1" marker-start="" marker-mid="" marker-end="" d="M38.99999809265137,600 C38.99999809265137,289.7790055248619 290.0552467114359,38.5 599.9999980926514,38.5 C909.9447494738668,38.5 1160.9999980926514,289.7790055248619 1160.9999980926514,600 C1160.9999980926514,910.220994475138 909.9447494738668,1161.5 599.9999980926514,1161.5 C290.0552467114359,1161.5 38.99999809265137,910.220994475138 38.99999809265137,600 z" id="svg_6" class=""/><g id="svg_1" class="" fill-opacity="1" fill="#e6f4f1">
  <path d="m643.0070102119446,380.00153775215153 c0,24.16 -19.586,43.742 -43.742,43.742 s-43.742,-19.582 -43.742,-43.742 c0,-24.156 19.586,-43.742 43.742,-43.742 s43.742,19.586 43.742,43.742 " id="svg_2" fill="#e6f4f1"/>
  <path d="m640.4170102119447,492.8015377521515 l54.965,136.11 l40.863,-16.402 l-65.902,-163.45 c-3.4531,-8.3438 -11.512,-13.812 -20.434,-13.812 h-101.01 c-8.9219,0 -16.977,5.4688 -20.434,13.812 l-65.898,163.45 l40.863,16.402 l54.965,-136.11 l6.9062,2.8789000000000002 l-74.523,198.27 h59.281 l31.941,169.79 h33.668 l31.941,-169.79 h59.281 l-73.957,-198.27 z" id="svg_3" fill="#e6f4f1"/>
  <path d="m1131.6670102119447,558.9915377521515 l-305.04,-135.82 v77.121 l217.27,95.828 l-217.27,97.266 v77.121 l305.04,-134.39 z" id="svg_4" fill="#e6f4f1"/>
  <path d="m68.33301021194461,636.1115377521514 l305.04,134.39 v-77.121 l-217.27,-97.266 l217.27,-95.828 v-77.121 l-305.04,135.82 z" id="svg_5" fill="#e6f4f1"/>
 </g></g>

 </svg>
